<mxfile host="app.diagrams.net" modified="2020-12-18T21:24:17.320Z" agent="5.0 (Windows NT 10.0; Win64; x64) AppleWebKit/537.36 (KHTML, like Gecko) Chrome/87.0.4280.88 Safari/537.36" etag="fR2vxiE4tOfT2HuY1rvJ" version="14.1.1" type="github">
  <diagram name="Page-1" id="13e1069c-82ec-6db2-03f1-153e76fe0fe0">
    <mxGraphModel dx="1673" dy="934" grid="1" gridSize="10" guides="1" tooltips="1" connect="1" arrows="1" fold="1" page="1" pageScale="1" pageWidth="1100" pageHeight="850" background="#ffffff" math="0" shadow="0">
      <root>
        <mxCell id="0" />
        <mxCell id="1" parent="0" />
        <mxCell id="YHZgAZko0aVFoVYLyXUj-6" value="User" style="rounded=1;whiteSpace=wrap;html=1;" vertex="1" parent="1">
          <mxGeometry x="160" y="80" width="80" height="40" as="geometry" />
        </mxCell>
        <mxCell id="YHZgAZko0aVFoVYLyXUj-9" value="Event Controller" style="rounded=1;whiteSpace=wrap;html=1;" vertex="1" parent="1">
          <mxGeometry x="400" y="80" width="80" height="40" as="geometry" />
        </mxCell>
        <mxCell id="YHZgAZko0aVFoVYLyXUj-10" value="" style="endArrow=none;dashed=1;html=1;dashPattern=1 3;strokeWidth=2;entryX=0.5;entryY=1;entryDx=0;entryDy=0;" edge="1" parent="1" target="YHZgAZko0aVFoVYLyXUj-9">
          <mxGeometry width="50" height="50" relative="1" as="geometry">
            <mxPoint x="440" y="140" as="sourcePoint" />
            <mxPoint x="240" y="220" as="targetPoint" />
          </mxGeometry>
        </mxCell>
        <mxCell id="YHZgAZko0aVFoVYLyXUj-11" value="" style="endArrow=none;dashed=1;html=1;dashPattern=1 3;strokeWidth=2;entryX=0.5;entryY=1;entryDx=0;entryDy=0;" edge="1" parent="1" source="YHZgAZko0aVFoVYLyXUj-12" target="YHZgAZko0aVFoVYLyXUj-6">
          <mxGeometry width="50" height="50" relative="1" as="geometry">
            <mxPoint x="200" y="600" as="sourcePoint" />
            <mxPoint x="200" y="120" as="targetPoint" />
          </mxGeometry>
        </mxCell>
        <mxCell id="YHZgAZko0aVFoVYLyXUj-12" value="" style="rounded=0;whiteSpace=wrap;html=1;" vertex="1" parent="1">
          <mxGeometry x="195" y="140" width="10" height="430" as="geometry" />
        </mxCell>
        <mxCell id="YHZgAZko0aVFoVYLyXUj-13" value="" style="endArrow=none;dashed=1;html=1;dashPattern=1 3;strokeWidth=2;entryX=0.5;entryY=1;entryDx=0;entryDy=0;" edge="1" parent="1" target="YHZgAZko0aVFoVYLyXUj-12">
          <mxGeometry width="50" height="50" relative="1" as="geometry">
            <mxPoint x="200" y="600" as="sourcePoint" />
            <mxPoint x="200" y="120" as="targetPoint" />
          </mxGeometry>
        </mxCell>
        <mxCell id="YHZgAZko0aVFoVYLyXUj-15" value="" style="endArrow=none;dashed=1;html=1;dashPattern=1 3;strokeWidth=2;entryX=0.5;entryY=1;entryDx=0;entryDy=0;" edge="1" parent="1" target="YHZgAZko0aVFoVYLyXUj-49">
          <mxGeometry width="50" height="50" relative="1" as="geometry">
            <mxPoint x="440" y="600" as="sourcePoint" />
            <mxPoint x="440" y="480" as="targetPoint" />
          </mxGeometry>
        </mxCell>
        <mxCell id="YHZgAZko0aVFoVYLyXUj-16" value="" style="endArrow=classic;html=1;exitX=1;exitY=0;exitDx=0;exitDy=0;entryX=0;entryY=0;entryDx=0;entryDy=0;" edge="1" parent="1" source="YHZgAZko0aVFoVYLyXUj-12">
          <mxGeometry width="50" height="50" relative="1" as="geometry">
            <mxPoint x="300" y="200" as="sourcePoint" />
            <mxPoint x="435" y="140" as="targetPoint" />
          </mxGeometry>
        </mxCell>
        <mxCell id="YHZgAZko0aVFoVYLyXUj-17" value="DetailView" style="rounded=1;whiteSpace=wrap;html=1;" vertex="1" parent="1">
          <mxGeometry x="280" y="360" width="80" height="40" as="geometry" />
        </mxCell>
        <mxCell id="YHZgAZko0aVFoVYLyXUj-19" value="GET /event/{id}" style="text;html=1;strokeColor=none;fillColor=none;align=center;verticalAlign=middle;whiteSpace=wrap;rounded=0;" vertex="1" parent="1">
          <mxGeometry x="270" y="120" width="110" height="20" as="geometry" />
        </mxCell>
        <mxCell id="YHZgAZko0aVFoVYLyXUj-20" value="User" style="rounded=1;whiteSpace=wrap;html=1;" vertex="1" parent="1">
          <mxGeometry x="640" y="80" width="80" height="40" as="geometry" />
        </mxCell>
        <mxCell id="YHZgAZko0aVFoVYLyXUj-22" value="Business Layer User object" style="rounded=0;whiteSpace=wrap;html=1;" vertex="1" parent="1">
          <mxGeometry x="620" y="10" width="120" height="60" as="geometry" />
        </mxCell>
        <mxCell id="YHZgAZko0aVFoVYLyXUj-23" value="" style="endArrow=none;dashed=1;html=1;dashPattern=1 3;strokeWidth=2;entryX=0.5;entryY=1;entryDx=0;entryDy=0;" edge="1" parent="1" target="YHZgAZko0aVFoVYLyXUj-20">
          <mxGeometry width="50" height="50" relative="1" as="geometry">
            <mxPoint x="680" y="140" as="sourcePoint" />
            <mxPoint x="690" y="160" as="targetPoint" />
          </mxGeometry>
        </mxCell>
        <mxCell id="YHZgAZko0aVFoVYLyXUj-26" value="" style="endArrow=none;dashed=1;html=1;dashPattern=1 3;strokeWidth=2;entryX=0.5;entryY=1;entryDx=0;entryDy=0;" edge="1" parent="1" target="YHZgAZko0aVFoVYLyXUj-58">
          <mxGeometry width="50" height="50" relative="1" as="geometry">
            <mxPoint x="680" y="600" as="sourcePoint" />
            <mxPoint x="680" y="300" as="targetPoint" />
          </mxGeometry>
        </mxCell>
        <mxCell id="YHZgAZko0aVFoVYLyXUj-27" value="" style="endArrow=classic;html=1;exitX=1;exitY=0;exitDx=0;exitDy=0;entryX=0;entryY=0;entryDx=0;entryDy=0;" edge="1" parent="1">
          <mxGeometry width="50" height="50" relative="1" as="geometry">
            <mxPoint x="445" y="139.99999999999932" as="sourcePoint" />
            <mxPoint x="675" y="140.0000000000001" as="targetPoint" />
          </mxGeometry>
        </mxCell>
        <mxCell id="YHZgAZko0aVFoVYLyXUj-28" value="GetEventsOverlappingWithNotOfType" style="text;html=1;strokeColor=none;fillColor=none;align=center;verticalAlign=middle;whiteSpace=wrap;rounded=0;" vertex="1" parent="1">
          <mxGeometry x="440" y="120" width="240" height="20" as="geometry" />
        </mxCell>
        <mxCell id="YHZgAZko0aVFoVYLyXUj-29" value="return required event conflicts" style="html=1;verticalAlign=bottom;endArrow=open;dashed=1;endSize=8;exitX=-0.333;exitY=0.185;exitDx=0;exitDy=0;exitPerimeter=0;" edge="1" parent="1">
          <mxGeometry relative="1" as="geometry">
            <mxPoint x="671.6699999999998" y="169.60000000000002" as="sourcePoint" />
            <mxPoint x="445" y="170" as="targetPoint" />
            <mxPoint as="offset" />
          </mxGeometry>
        </mxCell>
        <mxCell id="YHZgAZko0aVFoVYLyXUj-31" value="EventGateway" style="rounded=1;whiteSpace=wrap;html=1;" vertex="1" parent="1">
          <mxGeometry x="800" y="80" width="80" height="40" as="geometry" />
        </mxCell>
        <mxCell id="YHZgAZko0aVFoVYLyXUj-32" value="" style="endArrow=none;dashed=1;html=1;dashPattern=1 3;strokeWidth=2;entryX=0.5;entryY=1;entryDx=0;entryDy=0;" edge="1" parent="1" source="YHZgAZko0aVFoVYLyXUj-33">
          <mxGeometry width="50" height="50" relative="1" as="geometry">
            <mxPoint x="840" y="600" as="sourcePoint" />
            <mxPoint x="840" y="120" as="targetPoint" />
          </mxGeometry>
        </mxCell>
        <mxCell id="YHZgAZko0aVFoVYLyXUj-33" value="" style="rounded=0;whiteSpace=wrap;html=1;" vertex="1" parent="1">
          <mxGeometry x="835" y="140" width="10" height="120" as="geometry" />
        </mxCell>
        <mxCell id="YHZgAZko0aVFoVYLyXUj-34" value="" style="endArrow=none;dashed=1;html=1;dashPattern=1 3;strokeWidth=2;entryX=0.5;entryY=1;entryDx=0;entryDy=0;" edge="1" parent="1" target="YHZgAZko0aVFoVYLyXUj-33">
          <mxGeometry width="50" height="50" relative="1" as="geometry">
            <mxPoint x="840" y="600" as="sourcePoint" />
            <mxPoint x="840" y="120" as="targetPoint" />
          </mxGeometry>
        </mxCell>
        <mxCell id="YHZgAZko0aVFoVYLyXUj-41" value="" style="endArrow=classic;html=1;exitX=0;exitY=1;exitDx=0;exitDy=0;entryX=0.981;entryY=1.036;entryDx=0;entryDy=0;entryPerimeter=0;" edge="1" parent="1" source="YHZgAZko0aVFoVYLyXUj-43" target="YHZgAZko0aVFoVYLyXUj-43">
          <mxGeometry width="50" height="50" relative="1" as="geometry">
            <mxPoint x="520" y="290" as="sourcePoint" />
            <mxPoint x="1060" y="230" as="targetPoint" />
          </mxGeometry>
        </mxCell>
        <mxCell id="YHZgAZko0aVFoVYLyXUj-43" value="GetEventsOverlappingWithOfType" style="text;html=1;strokeColor=none;fillColor=none;align=center;verticalAlign=middle;whiteSpace=wrap;rounded=0;" vertex="1" parent="1">
          <mxGeometry x="445" y="210" width="235" height="20" as="geometry" />
        </mxCell>
        <mxCell id="YHZgAZko0aVFoVYLyXUj-44" value="return upcoming not joined events" style="html=1;verticalAlign=bottom;endArrow=open;dashed=1;endSize=8;entryX=0.914;entryY=0.354;entryDx=0;entryDy=0;entryPerimeter=0;exitX=0;exitY=0.75;exitDx=0;exitDy=0;" edge="1" parent="1">
          <mxGeometry relative="1" as="geometry">
            <mxPoint x="675" y="260" as="sourcePoint" />
            <mxPoint x="444.1399999999999" y="260.36" as="targetPoint" />
            <mxPoint as="offset" />
          </mxGeometry>
        </mxCell>
        <mxCell id="YHZgAZko0aVFoVYLyXUj-49" value="" style="rounded=0;whiteSpace=wrap;html=1;" vertex="1" parent="1">
          <mxGeometry x="435" y="140" width="10" height="210" as="geometry" />
        </mxCell>
        <mxCell id="YHZgAZko0aVFoVYLyXUj-50" value="return DetailView ()" style="html=1;verticalAlign=bottom;endArrow=open;dashed=1;endSize=8;exitX=0;exitY=1;exitDx=0;exitDy=0;entryX=0.987;entryY=0.91;entryDx=0;entryDy=0;entryPerimeter=0;" edge="1" parent="1">
          <mxGeometry relative="1" as="geometry">
            <mxPoint x="435.13" y="350" as="sourcePoint" />
            <mxPoint x="204.9999999999999" y="351.10000000000014" as="targetPoint" />
            <mxPoint as="offset" />
          </mxGeometry>
        </mxCell>
        <mxCell id="YHZgAZko0aVFoVYLyXUj-51" value="" style="endArrow=classic;html=1;exitX=1;exitY=0;exitDx=0;exitDy=0;entryX=1;entryY=1;entryDx=0;entryDy=0;" edge="1" parent="1" target="YHZgAZko0aVFoVYLyXUj-52">
          <mxGeometry width="50" height="50" relative="1" as="geometry">
            <mxPoint x="685" y="140" as="sourcePoint" />
            <mxPoint x="840" y="140" as="targetPoint" />
          </mxGeometry>
        </mxCell>
        <mxCell id="YHZgAZko0aVFoVYLyXUj-52" value="FindEventsForUser" style="text;html=1;strokeColor=none;fillColor=none;align=center;verticalAlign=middle;whiteSpace=wrap;rounded=0;" vertex="1" parent="1">
          <mxGeometry x="680" y="120" width="155" height="20" as="geometry" />
        </mxCell>
        <mxCell id="YHZgAZko0aVFoVYLyXUj-53" value="return Events for user" style="html=1;verticalAlign=bottom;endArrow=open;dashed=1;endSize=8;exitX=-0.333;exitY=0.185;exitDx=0;exitDy=0;exitPerimeter=0;entryX=1.025;entryY=0.189;entryDx=0;entryDy=0;entryPerimeter=0;" edge="1" parent="1">
          <mxGeometry relative="1" as="geometry">
            <mxPoint x="834.9999999999999" y="170.00000000000003" as="sourcePoint" />
            <mxPoint x="685.25" y="170.24000000000012" as="targetPoint" />
            <mxPoint as="offset" />
          </mxGeometry>
        </mxCell>
        <mxCell id="YHZgAZko0aVFoVYLyXUj-54" value="return Events for user" style="html=1;verticalAlign=bottom;endArrow=open;dashed=1;endSize=8;exitX=-0.333;exitY=0.185;exitDx=0;exitDy=0;exitPerimeter=0;entryX=1.025;entryY=0.189;entryDx=0;entryDy=0;entryPerimeter=0;" edge="1" parent="1">
          <mxGeometry relative="1" as="geometry">
            <mxPoint x="835" y="170" as="sourcePoint" />
            <mxPoint x="685.25" y="170.24" as="targetPoint" />
            <mxPoint as="offset" />
          </mxGeometry>
        </mxCell>
        <mxCell id="YHZgAZko0aVFoVYLyXUj-55" value="" style="endArrow=classic;html=1;exitX=0;exitY=1;exitDx=0;exitDy=0;entryX=1;entryY=1;entryDx=0;entryDy=0;" edge="1" parent="1" source="YHZgAZko0aVFoVYLyXUj-56" target="YHZgAZko0aVFoVYLyXUj-56">
          <mxGeometry width="50" height="50" relative="1" as="geometry">
            <mxPoint x="685" y="229.51999999999998" as="sourcePoint" />
            <mxPoint x="840" y="229.51999999999998" as="targetPoint" />
          </mxGeometry>
        </mxCell>
        <mxCell id="YHZgAZko0aVFoVYLyXUj-56" value="FindEventsForUser" style="text;html=1;strokeColor=none;fillColor=none;align=center;verticalAlign=middle;whiteSpace=wrap;rounded=0;" vertex="1" parent="1">
          <mxGeometry x="685" y="209.52" width="150" height="20" as="geometry" />
        </mxCell>
        <mxCell id="YHZgAZko0aVFoVYLyXUj-57" value="return Events for user" style="html=1;verticalAlign=bottom;endArrow=open;dashed=1;endSize=8;exitX=-0.333;exitY=0.185;exitDx=0;exitDy=0;exitPerimeter=0;entryX=1.025;entryY=0.189;entryDx=0;entryDy=0;entryPerimeter=0;" edge="1" parent="1">
          <mxGeometry relative="1" as="geometry">
            <mxPoint x="835" y="259.52" as="sourcePoint" />
            <mxPoint x="685.25" y="259.76" as="targetPoint" />
            <mxPoint as="offset" />
          </mxGeometry>
        </mxCell>
        <mxCell id="YHZgAZko0aVFoVYLyXUj-58" value="" style="rounded=0;whiteSpace=wrap;html=1;" vertex="1" parent="1">
          <mxGeometry x="675" y="140" width="10" height="120" as="geometry" />
        </mxCell>
      </root>
    </mxGraphModel>
  </diagram>
</mxfile>
